<svg width="65" height="17" viewBox="0 0 65 17" fill="none" xmlns="http://www.w3.org/2000/svg">
<path d="M5.13124 13.728V2.552H4.73524L3.28324 7.832H0.511242V7.568L2.35924 1.1H8.03524V13.728H11.8632V16.5H0.775242V13.728H5.13124ZM17.6779 8.8C17.6779 8.30133 17.8613 7.86867 18.2279 7.502C18.5946 7.13533 19.0273 6.952 19.5259 6.952C20.0246 6.952 20.4573 7.13533 20.8239 7.502C21.1906 7.86867 21.3739 8.30133 21.3739 8.8C21.3739 9.29867 21.1906 9.73133 20.8239 10.098C20.4573 10.4647 20.0246 10.648 19.5259 10.648C19.0273 10.648 18.5946 10.4647 18.2279 10.098C17.8613 9.73133 17.6779 9.29867 17.6779 8.8ZM13.8499 7.084C13.8499 5.08933 14.3486 3.542 15.3459 2.442C16.3579 1.342 17.7513 0.791999 19.5259 0.791999C21.3006 0.791999 22.6866 1.342 23.6839 2.442C24.6959 3.542 25.2019 5.08933 25.2019 7.084V10.516C25.2019 12.5693 24.6959 14.1313 23.6839 15.202C22.6866 16.2727 21.3006 16.808 19.5259 16.808C17.7513 16.808 16.3579 16.2727 15.3459 15.202C14.3486 14.1313 13.8499 12.5693 13.8499 10.516V7.084ZM19.5259 14.168C20.0539 14.168 20.4939 14.0873 20.8459 13.926C21.1979 13.75 21.4839 13.508 21.7039 13.2C21.9239 12.892 22.0779 12.5253 22.1659 12.1C22.2539 11.6747 22.2979 11.2053 22.2979 10.692V6.908C22.2979 6.424 22.2466 5.96933 22.1439 5.544C22.0413 5.11867 21.8799 4.752 21.6599 4.444C21.4399 4.136 21.1539 3.894 20.8019 3.718C20.4499 3.52733 20.0246 3.432 19.5259 3.432C19.0273 3.432 18.6019 3.52733 18.2499 3.718C17.8979 3.894 17.6119 4.136 17.3919 4.444C17.1719 4.752 17.0106 5.11867 16.9079 5.544C16.8053 5.96933 16.7539 6.424 16.7539 6.908V10.692C16.7539 11.2053 16.7979 11.6747 16.8859 12.1C16.9739 12.5253 17.1279 12.892 17.3479 13.2C17.5679 13.508 17.8539 13.75 18.2059 13.926C18.5579 14.0873 18.9979 14.168 19.5259 14.168ZM38.5186 13.728V16.5H27.6946V13.464C27.6946 12.6573 27.812 11.968 28.0466 11.396C28.296 10.824 28.6406 10.34 29.0806 9.944C29.5353 9.548 30.078 9.22533 30.7086 8.976C31.3393 8.712 32.0506 8.492 32.8426 8.316C33.4293 8.184 33.906 8.03733 34.2726 7.876C34.654 7.7 34.9546 7.50933 35.1746 7.304C35.3946 7.084 35.5413 6.84933 35.6146 6.6C35.7026 6.336 35.7466 6.04267 35.7466 5.72C35.7466 5.104 35.5193 4.59067 35.0646 4.18C34.6246 3.76933 34.0086 3.564 33.2166 3.564C32.3806 3.564 31.7133 3.82067 31.2146 4.334C30.716 4.83267 30.4666 5.52933 30.4666 6.424V7.392H27.5626V6.16C27.5626 5.44133 27.6873 4.75933 27.9366 4.114C28.2006 3.454 28.5673 2.882 29.0366 2.398C29.5206 1.89933 30.1073 1.51067 30.7966 1.232C31.486 0.938666 32.2633 0.791999 33.1286 0.791999C34.0526 0.791999 34.8593 0.931332 35.5486 1.21C36.238 1.474 36.81 1.826 37.2646 2.266C37.734 2.706 38.0786 3.21933 38.2986 3.806C38.5333 4.378 38.6506 4.972 38.6506 5.588V5.852C38.6506 7.14267 38.284 8.21333 37.5506 9.064C36.832 9.91467 35.6513 10.5307 34.0086 10.912C33.3193 11.0733 32.7473 11.242 32.2926 11.418C31.8526 11.5793 31.508 11.7627 31.2586 11.968C31.0093 12.1733 30.8333 12.4007 30.7306 12.65C30.6426 12.8847 30.5986 13.156 30.5986 13.464V13.728H38.5186ZM41.1874 9.636V1.1H51.4834V3.872H44.0914V8.052H44.4874C44.6927 7.48 45.074 6.98867 45.6314 6.578C46.2034 6.15267 46.966 5.94 47.9194 5.94C48.638 5.94 49.2834 6.06467 49.8554 6.314C50.4274 6.56333 50.9114 6.908 51.3074 7.348C51.7034 7.788 52.004 8.316 52.2094 8.932C52.4294 9.548 52.5394 10.2227 52.5394 10.956V11.088C52.5394 11.8653 52.4074 12.5987 52.1434 13.288C51.894 13.9773 51.52 14.586 51.0214 15.114C50.5374 15.6273 49.936 16.038 49.2174 16.346C48.4987 16.654 47.67 16.808 46.7314 16.808C45.7927 16.808 44.964 16.6833 44.2454 16.434C43.5267 16.17 42.918 15.8107 42.4194 15.356C41.9354 14.8867 41.5614 14.3367 41.2974 13.706C41.048 13.0607 40.9234 12.364 40.9234 11.616V11.088H43.8274V11.352C43.8274 12.1293 44.062 12.7747 44.5314 13.288C45.0154 13.7867 45.7194 14.036 46.6434 14.036C47.5674 14.036 48.2934 13.7867 48.8214 13.288C49.364 12.7893 49.6354 12.1 49.6354 11.22C49.6354 10.384 49.4374 9.76067 49.0414 9.35C48.6454 8.92467 48.1247 8.712 47.4794 8.712C47.054 8.712 46.7094 8.80733 46.4454 8.998C46.1814 9.174 46.0127 9.38667 45.9394 9.636H41.1874ZM55.3401 7.546H58.6841V4.202H61.1921V7.546H64.5361V10.054H61.1921V13.398H58.6841V10.054H55.3401V7.546Z" fill="white"/>
</svg>
